<?xml version="1.0" encoding="UTF-8"?>
<svg width="727px" height="130px" viewBox="0 0 727 130" version="1.1" xmlns="http://www.w3.org/2000/svg" xmlns:xlink="http://www.w3.org/1999/xlink">
    <!-- Generator: Sketch 52.2 (67145) - http://www.bohemiancoding.com/sketch -->
    <title>logo_horizontal_primary-digistore</title>
    <desc>Created with Sketch.</desc>
    <defs>
        <linearGradient x1="0%" y1="100%" x2="89.2797896%" y2="6.46867104%" id="linearGradient-1">
            <stop stop-color="#3146A0" offset="0%"></stop>
            <stop stop-color="#0288D1" offset="100%"></stop>
        </linearGradient>
    </defs>
    <g id="Page-1" stroke="none" stroke-width="1" fill="none" fill-rule="evenodd">
        <g id="logo_horizontal_primary-digistore" fill-rule="nonzero">
            <g id="Textmark" transform="translate(156.000000, 18.000000)" fill="#3A4959">
                <g id="path-1-link">
                    <path d="M50.5271079,69.9767744 L50.5271079,44.6868095 C46.1759767,41.1514822 40.722317,39.2600707 35.1189312,39.3463536 C25.1939057,38.910398 16.7933641,46.6100094 16.3555286,56.543893 C16.3441858,56.8436125 16.33738,57.1410614 16.3396486,57.4385102 C16.3396486,68.119422 24.3431892,75.4239486 35.1189312,75.4239486 C40.7450028,75.5238551 46.2213483,73.5983846 50.5497937,69.9972098 L50.5271079,69.9767744 Z M66.7678525,1.52039509 L66.7678525,89.0929725 L50.5271079,89.0929725 L50.5271079,85.2692788 C44.950945,88.4617452 38.6397631,90.13972 32.2174209,90.13972 C14.7176159,90.13972 0.334836026,76.9180047 0.334836026,57.5247931 C0.334836026,37.7887206 14.7176159,24.9075956 32.2174209,24.9075956 C38.623883,24.928031 44.9214535,26.5674056 50.5271079,29.6713185 L50.5271079,1.52039509 L66.7678525,1.52039509 Z M75.0467984,89.0303039 L75.0467984,26.0188282 L91.1605027,26.0188282 L91.1605027,89.0303039 L75.0467984,89.0303039 Z M73.7673208,9.76358854 C73.7310236,4.58207481 77.8734457,0.340590298 83.050339,0.258848627 C88.2000094,0.351943308 92.2993285,4.60705143 92.2063168,9.76131794 L92.2063168,9.76358854 C92.2879856,14.872443 88.218158,19.0798685 83.1161277,19.1616102 C83.0934419,19.1616102 83.0707562,19.1616102 83.050339,19.1616102 C77.9006686,19.1389041 73.7446351,14.9405611 73.7673208,9.78629456 L73.7673208,9.76358854 Z M131.535733,72.7750643 C137.152731,72.9408182 142.647225,71.1356897 147.073219,67.6684804 L147.073219,44.4515751 C142.640419,41.0048013 137.150462,39.1996727 131.535733,39.3472618 C120.759991,39.3472618 112.756451,46.5450701 112.756451,56.0498101 C112.736034,66.0472706 120.71462,72.7750643 131.515316,72.7750643 L131.535733,72.7750643 Z M163.184655,26.0188282 L163.184655,76.9620544 C163.184655,93.2150234 154.1353,110.96659 130.256256,110.96659 C114.721039,110.96659 111.710637,109.576981 101.958023,106.693317 L105.095465,94.7317855 C111.985135,97.0250935 119.178793,98.2784658 126.435972,98.448761 C136.059276,98.448761 145.920782,92.6405611 146.367691,82.7929603 C140.952598,85.7129544 134.890959,87.2251753 128.740846,87.1933869 C111.114001,87.1933869 96.8582613,74.5484044 96.8582613,55.8568089 C96.8582613,37.1674839 111.114001,24.7586441 128.740846,24.7586441 C135.154114,24.7382086 141.460759,26.3775833 147.050533,29.522367 L147.050533,25.9325453 L163.161969,25.9325453 L163.184655,26.0188282 Z M171.615595,89.0303039 L171.615595,26.0188282 L187.727031,26.0188282 L187.727031,89.0303039 L171.615595,89.0303039 Z M170.333849,9.76358854 C170.297552,4.58207481 174.442243,0.340590298 179.616867,0.258848627 C184.766538,0.351943308 188.865857,4.60705143 188.772845,9.76131794 C188.772845,9.76131794 188.770577,9.76358854 188.770577,9.76358854 C188.865857,14.8588194 184.816446,19.0662449 179.725759,19.1616102 C179.689462,19.1616102 179.650896,19.1616102 179.616867,19.1616102 C174.464928,19.1389041 170.308895,14.9405611 170.333849,9.78629456 L170.333849,9.76358854 Z M198.82423,71.9635511 C205.546025,75.2536534 212.916632,76.9974757 220.3984,77.0678644 C227.825722,77.0678644 230.706815,74.2909182 230.706815,71.0439573 C230.706815,67.4564062 227.122463,65.8124904 217.367581,63.7394307 C203.794683,60.7286125 193.892343,56.3054798 193.892343,44.1327826 C193.892343,32.7684196 203.284253,24.9075956 217.900697,24.9075956 C226.355684,24.9461958 234.713123,26.6832063 242.485268,30.0119088 L237.151843,41.8462864 C230.901913,39.3804126 224.275399,38.0066984 217.56041,37.7887206 C211.414834,37.7887206 208.277392,39.9230865 208.277392,43.3630485 C208.277392,46.8007399 212.097676,48.4673618 222.190576,50.5608568 C236.809288,53.571675 245.262007,58.6782589 245.262007,70.167505 C245.262007,82.1313068 236.106029,90.0125663 219.992325,90.0125663 C210.541432,90.3599684 201.158596,88.280097 192.739906,83.9682238 L198.82423,71.9635511 Z M271.168252,39.3468077 L271.168252,61.6259544 C271.168252,72.8813285 273.023948,76.1282893 281.134112,76.1282893 C283.618204,76.0737949 286.097759,75.8830643 288.561434,75.5515564 L288.561434,87.619806 C283.87909,89.3091338 278.917712,90.0993033 273.942722,89.947173 C263.398375,89.947173 254.927507,83.3260976 254.927507,70.1043822 L254.927507,39.3468077 L246.007461,39.3468077 L246.007461,25.9979386 L254.927507,25.9979386 L254.927507,1.51857861 L271.168252,1.51857861 L271.168252,25.9979386 L288.797366,25.9979386 L288.797366,39.3468077 L271.168252,39.3468077 Z M342.595314,57.4596268 C342.926527,47.201047 334.88442,38.6181715 324.634988,38.2889342 C314.385556,37.959697 305.810334,46.0067104 305.48139,56.2652902 C305.152447,66.5215994 313.192284,75.1044749 323.441716,75.4359828 C323.64362,75.440524 323.845523,75.4450652 324.049695,75.4450652 C334.149401,75.6244427 342.479617,67.5751587 342.658834,57.4664386 L342.658834,57.4596268 L342.595314,57.4596268 Z M358.473087,57.4596268 C358.473087,75.4450652 343.042224,89.9496707 324.049695,89.9496707 C305.057166,89.9496707 289.608155,75.4450652 289.608155,57.4596268 C289.608155,39.4764591 305.034481,24.8446999 324.049695,24.8446999 C343.06491,24.8446999 358.473087,39.3470348 358.473087,57.4596268 Z M377.893242,34.8401169 C382.466694,28.4597253 389.873599,24.7313968 397.718339,24.8653624 C399.063605,24.8812566 400.397529,25.1196698 401.665663,25.569249 L401.665663,43.0846727 C399.108977,42.5510812 396.509187,42.2377382 393.898055,42.1446435 C382.310162,42.1446435 377.893242,50.3914699 377.893242,58.6133197 L377.893242,89.0075979 L361.652498,89.0075979 L361.652498,25.9961222 L377.893242,25.9961222 L377.893242,34.8196815 L377.893242,34.8401169 Z M419.591734,51.7785807 L450.77106,51.7785807 C450.194841,44.5807724 446.374557,37.7439898 435.576129,37.7439898 C427.552172,37.8983907 420.80996,43.8314737 419.634837,51.7785807 L419.591734,51.7785807 Z M419.485111,62.0939255 C421.150247,70.5973299 428.808963,76.5780956 437.454511,76.1285164 C443.78611,76.2329641 449.800109,73.3538407 453.692987,68.3539752 L464.001402,76.8982504 C458.198382,84.7795099 447.889967,89.9065292 435.598815,89.9065292 C416.583601,89.9065292 403.373675,75.4019237 403.373675,57.4164854 C403.373675,39.4333177 416.583601,24.8015584 435.598815,24.8015584 C454.954316,24.8015584 466.199654,38.8338787 466.199654,58.4427975 C466.199654,59.7256876 466.093031,61.0040365 466.093031,62.0303486 L419.485111,62.0303486 L419.485111,62.0939255 Z M492.897405,76.9182317 L492.897405,76.9409378 L517.225628,76.9409378 L517.225628,89.969652 L468.782429,89.969652 L468.782429,78.5644182 L469.03651,78.371417 C495.011719,59.1257946 502.051115,52.8884509 502.051115,45.5839243 C502.096486,43.3405695 501.014375,41.2243685 499.17229,39.9460196 C497.203165,38.631341 494.877873,37.9615134 492.514016,38.0228197 C489.31759,37.9933019 486.150657,38.6495058 483.228729,39.9460196 C480.538196,41.1857683 478.110819,42.9318612 476.080442,45.0934743 L475.610847,45.5839243 L467.07419,35.7794649 L467.437163,35.3752978 C470.529234,31.8445117 474.422112,29.1129775 478.791392,27.4077554 C483.0359,25.7229687 487.561712,24.86014 492.128358,24.8646812 C498.380557,24.6875742 504.512521,26.6130447 509.544225,30.3322908 C511.771968,32.0874661 513.582293,34.3217385 514.834547,36.8693539 C516.143517,39.5872645 516.80821,42.5685649 516.77645,45.5839243 C516.769644,48.369953 516.197962,51.1241932 515.090897,53.6786204 C513.838642,56.5259553 512.178043,59.1734772 510.161278,61.5394445 C505.036562,67.3317501 499.240347,72.4928285 492.897405,76.9182317 Z M532.056905,63.8888364 L547.251836,63.8888364 L547.251836,40.392647 L532.056905,63.8888364 Z M561.934068,63.8888364 L570.044232,63.8888364 L570.044232,76.9175506 L561.934068,76.9175506 L561.934068,89.9258293 L547.294939,89.9258293 L547.294939,76.9175506 L517.224947,76.9175506 L517.224947,65.5554582 L542.36532,26.0174658 L561.934068,26.0174658 L561.934068,63.8888364 Z" id="path-1"></path>
                </g>
            </g>
            <g id="Logomark" fill="url(#linearGradient-1)">
                <g id="path-4-link">
                    <path d="M105.557642,0.220338983 C101.891785,0.240752742 98.2304597,1.20927218 94.9520328,3.12136092 L46.7385403,30.9884098 L32.2065224,22.5824776 C21.9430299,16.6420738 8.81346269,20.1555085 2.88193433,30.4281655 C0.987832836,33.7057079 -0.00453134328,37.4232802 -1.18969606e-14,41.2088983 L-1.18969606e-14,108.120663 L-1.18969606e-14,108.270364 C0.0362507463,120.044566 9.55886866,129.598205 21.3403612,129.643569 L21.4559104,129.643569 C25.2350507,129.636765 28.9416896,128.629686 32.2065224,126.728938 L80.4132179,98.8618893 L90.0695104,93.2707876 L91.093594,92.6515703 C101.012704,86.1554586 103.794949,72.8411515 97.3083313,62.9087238 C95.4640746,60.0893569 92.9876955,57.7417747 90.0695104,56.0610419 L57.4619642,37.2191426 L100.342066,12.5321037 C105.399045,9.51313559 111.937773,11.1711864 114.953382,16.2337986 C115.961606,17.9258724 116.48271,19.8629113 116.455522,21.8339731 L116.455522,88.748006 C116.532555,94.6385095 111.82449,99.4788385 105.94054,99.5536889 C103.971672,99.5809073 102.032257,99.0592223 100.342066,98.0498754 L98.0628,96.7275174 L87.4073463,102.915155 L95.0789104,107.354013 C105.342403,113.292149 118.467439,109.778714 124.403499,99.5037886 C126.290803,96.235319 127.283167,92.5245513 127.283167,88.748006 L127.283167,21.7477817 C127.29223,14.0291127 123.136988,6.90471087 116.412475,3.12136092 C113.134048,1.20927218 109.472722,0.240752742 105.8046,0.220338983 L105.557642,0.220338983 Z M10.784597,108.120663 L10.784597,41.2088983 C10.7075642,35.3161266 15.4156299,30.4780658 21.2995791,30.4032154 C23.2707134,30.375997 25.2078627,30.8954138 26.8980537,31.9047607 L84.7836985,65.3606431 C88.1006418,67.2772682 90.1374806,70.8292622 90.1125582,74.6647807 L90.0695104,74.6647807 C90.0831045,78.5071037 88.0326716,82.0613659 84.6998687,83.9689182 L80.4358746,86.4639332 L42.4564209,64.5100698 C37.3428,61.5931705 35.5574507,55.0789133 38.4711045,49.957328 C38.9740836,49.0772682 39.5971433,48.2697906 40.3244239,47.56665 L30.8403224,42.0821535 C23.6490806,51.5609422 25.495603,65.081655 34.9615791,72.2786391 C35.6888597,72.8298106 36.4478597,73.3356181 37.2340478,73.7892572 L69.8438597,92.6311565 L26.8980537,117.424801 C25.1874716,118.445489 23.3046985,118.930882 21.4491134,118.930882 C17.8195075,118.930882 14.2805284,117.07323 12.2867373,113.725374 C11.2785134,112.031032 10.757409,110.091725 10.784597,108.120663 Z" id="path-4"></path>
                </g>
            </g>
        </g>
    </g>
</svg>